<?xml version="1.0" encoding="UTF-8" standalone="no"?>
<svg xmlns:dc="http://purl.org/dc/elements/1.1/" xmlns:cc="http://creativecommons.org/ns#" xmlns:rdf="http://www.w3.org/1999/02/22-rdf-syntax-ns#" xmlns:svg="http://www.w3.org/2000/svg" xmlns="http://www.w3.org/2000/svg" xmlns:sodipodi="http://sodipodi.sourceforge.net/DTD/sodipodi-0.dtd" xmlns:inkscape="http://www.inkscape.org/namespaces/inkscape" width="16" height="16" version="1.1" id="svg8" sodipodi:docname="hicolor_actions_scalable_text-casesensitive-symbolic.svg" inkscape:version="0.92.4 (5da689c313, 2019-01-14)">
  <metadata id="metadata14">
    <rdf:RDF>
      <cc:Work rdf:about="">
        <dc:format>image/svg+xml</dc:format>
        <dc:type rdf:resource="http://purl.org/dc/dcmitype/StillImage" />
        <dc:title />
      </cc:Work>
    </rdf:RDF>
  </metadata>
  <defs id="defs12" />
  <sodipodi:namedview pagecolor="#ffffff" bordercolor="#666666" borderopacity="1" objecttolerance="10" gridtolerance="10" guidetolerance="10" inkscape:pageopacity="0" inkscape:pageshadow="2" inkscape:window-width="1920" inkscape:window-height="1052" id="namedview10" showgrid="true" inkscape:zoom="29.5" inkscape:cx="1.1578155" inkscape:cy="5.7499108" inkscape:window-x="0" inkscape:window-y="0" inkscape:window-maximized="1" inkscape:current-layer="svg8">
    <inkscape:grid type="xygrid" id="grid827" />
  </sodipodi:namedview>
  <text xml:space="preserve" style="font-style:normal;font-weight:normal;font-size:12.5px;line-height:25px;font-family:sans-serif;text-align:center;letter-spacing:0px;word-spacing:0px;text-anchor:middle;fill:#000000;fill-opacity:1;stroke:none;stroke-width:1px;stroke-linecap:butt;stroke-linejoin:miter;stroke-opacity:1" x="9.2881355" y="25.355932" id="text825"><tspan sodipodi:role="line" id="tspan823" x="9.2881355" y="41.103004" style="font-style:normal;font-variant:normal;font-weight:normal;font-stretch:normal;font-family:'Bitstream Vera Sans';-inkscape-font-specification:'Bitstream Vera Sans'" /></text>
  <g aria-label="Aa" style="font-style:normal;font-weight:normal;font-size:12.5px;line-height:25px;font-family:sans-serif;text-align:center;letter-spacing:0px;word-spacing:0px;text-anchor:middle;fill:#000000;fill-opacity:1;stroke:none;stroke-width:1px;stroke-linecap:butt;stroke-linejoin:miter;stroke-opacity:1" id="text821">
    <path style="font-style:normal;font-variant:normal;font-weight:normal;font-stretch:normal;font-size:14.66666698px;font-family:Aller;-inkscape-font-specification:Aller;fill:#bebebe;fill-opacity:1" d="m 4.5488281,2.5996094 c -0.1564444,0 -0.3084114,0.00389 -0.4550781,0.013672 -0.1466667,0.00978 -0.2830451,0.025367 -0.4101562,0.044922 L 0.25195312,13.203125 c 0.10755556,0.01955 0.22445139,0.03514 0.3515625,0.04492 0.1368889,0.0098 0.27522051,0.01367 0.41210938,0.01367 0.1271111,0 0.2537482,-0.0039 0.3808594,-0.01367 0.127111,-0.0098 0.2537482,-0.02537 0.3808594,-0.04492 l 0.71875,-2.433594 H 6.5 l 0.7324219,2.433594 c 0.1173333,0.01955 0.2400763,0.03514 0.3671875,0.04492 0.1368888,0.0098 0.2693732,0.01367 0.3964844,0.01367 0.1368888,0 0.2791145,-0.0039 0.4257812,-0.01367 0.1466667,-0.0098 0.2771979,-0.02537 0.3945312,-0.04492 L 5.4003906,2.6582031 C 5.2635017,2.6386478 5.121276,2.6230593 4.9746094,2.6132812 4.8279427,2.6035033 4.685717,2.5996094 4.5488281,2.5996094 Z M 4.4902344,4.0800781 6.1035156,9.4628906 H 2.8925781 Z m 8.1582036,1.4238281 c -0.371556,0 -0.757315,0.029224 -1.158204,0.087891 -0.400889,0.058667 -0.769118,0.1404913 -1.101562,0.2480469 0,0.4497778 0.09352,0.8374895 0.279297,1.1601562 0.283556,-0.088 0.571901,-0.1561895 0.865234,-0.2050781 0.303111,-0.058667 0.626527,-0.087891 0.96875,-0.087891 0.557333,10e-8 0.982057,0.1110487 1.275391,0.3359376 0.293333,0.2248889 0.439453,0.6262361 0.439453,1.203125 v 0.2792968 c -0.136889,-0.019555 -0.306386,-0.035144 -0.511719,-0.044922 -0.195556,-0.019555 -0.450783,-0.029297 -0.763672,-0.029297 -0.420444,0 -0.821791,0.054554 -1.203125,0.1621093 -0.381333,0.097778 -0.718385,0.253639 -1.011719,0.46875 -0.293333,0.2053334 -0.527124,0.4703021 -0.703124,0.7929688 -0.1662226,0.3128893 -0.2500005,0.6791653 -0.2500005,1.0996093 0,0.430222 0.074037,0.796498 0.2207031,1.09961 0.1466664,0.30311 0.3512344,0.552491 0.6152344,0.748047 0.273777,0.195555 0.601089,0.337781 0.982422,0.425781 0.391111,0.088 0.825576,0.130859 1.304687,0.130859 0.508445,0 1.007205,-0.04286 1.496094,-0.130859 0.488889,-0.07822 0.905824,-0.156152 1.248047,-0.234375 V 8.3046875 c 0,-0.9777778 -0.255227,-1.6869531 -0.763672,-2.1269531 C 14.368508,5.7279566 13.626215,5.5039062 12.648438,5.5039062 Z m 0.439453,4.0761719 c 0.156444,0 0.347376,0.00974 0.572265,0.029297 0.224889,0.019556 0.409974,0.039038 0.556641,0.058594 v 2.3906249 c -0.185778,0.04889 -0.400087,0.08785 -0.644531,0.117187 -0.234668,0.01955 -0.464565,0.0293 -0.689454,0.0293 -0.176,0 -0.361085,-0.0097 -0.55664,-0.0293 -0.195556,-0.01956 -0.376747,-0.07216 -0.542969,-0.160156 -0.156445,-0.088 -0.288929,-0.214637 -0.396484,-0.380859 -0.107556,-0.166223 -0.16211,-0.39612 -0.16211,-0.689454 0,-0.459555 0.157815,-0.802454 0.470703,-1.0273429 0.322667,-0.224889 0.786357,-0.3378907 1.392579,-0.337891 z" id="path4524" inkscape:connector-curvature="0" />
  </g>
</svg>
