<?xml version="1.0" encoding="UTF-8" standalone="no"?>
<!-- Created with Inkscape (http://www.inkscape.org/) -->

<svg
   id="svg7384"
   height="16"
   width="16"
   version="1.1"
   inkscape:version="1.1.2 (0a00cf5339, 2022-02-04)"
   sodipodi:docname="hicolor_actions_scalable_open-in-browser-symbolic.svg"
   xmlns:inkscape="http://www.inkscape.org/namespaces/inkscape"
   xmlns:sodipodi="http://sodipodi.sourceforge.net/DTD/sodipodi-0.dtd"
   xmlns="http://www.w3.org/2000/svg"
   xmlns:svg="http://www.w3.org/2000/svg"
   xmlns:rdf="http://www.w3.org/1999/02/22-rdf-syntax-ns#"
   xmlns:cc="http://creativecommons.org/ns#"
   xmlns:dc="http://purl.org/dc/elements/1.1/">
  <defs
     id="defs10" />
  <sodipodi:namedview
     pagecolor="#ffffff"
     bordercolor="#666666"
     borderopacity="1"
     objecttolerance="10"
     gridtolerance="10"
     guidetolerance="10"
     inkscape:pageopacity="0"
     inkscape:pageshadow="2"
     inkscape:window-width="1717"
     inkscape:window-height="995"
     id="namedview8"
     showgrid="true"
     inkscape:zoom="50.116193"
     inkscape:cx="8.0413131"
     inkscape:cy="10.186328"
     inkscape:window-x="237"
     inkscape:window-y="16"
     inkscape:window-maximized="0"
     inkscape:current-layer="svg7384"
     inkscape:pagecheckerboard="0">
    <inkscape:grid
       type="xygrid"
       id="grid338" />
  </sodipodi:namedview>
  <metadata
     id="metadata90">
    <rdf:RDF>
      <cc:Work
         rdf:about="">
        <dc:format>image/svg+xml</dc:format>
        <dc:type
           rdf:resource="http://purl.org/dc/dcmitype/StillImage" />
        <dc:title />
      </cc:Work>
    </rdf:RDF>
  </metadata>
  <path
     d="M 1.3333334,16 Q 0.79999948,16 0.39999976,15.6 0,15.199999 0,14.666666 V 1.3333333 Q 0,0.79999998 0.39999976,0.40000003 0.79999948,0 1.3333334,0 H 14.666668 Q 15.200001,0 15.600001,0.40000003 16,0.79999998 16,1.3333333 V 14.666666 q 0,0.533333 -0.399999,0.933334 -0.4,0.4 -0.933333,0.4 H 9.9999996 V 14.666666 H 14.666668 V 2.6666667 H 1.3333334 V 14.666666 H 5.9999998 V 16 Z m 5.9999997,0 V 9.6888888 L 5.4888888,11.533333 4.5333332,10.577777 7.9999998,7.1111108 11.466668,10.577777 10.511111,11.533333 8.6666664,9.6888888 V 16 Z"
     id="path329"
     style="stroke-width:0.0222223;fill:#bebebe" />
</svg>
