<?xml version="1.0" encoding="UTF-8" standalone="no"?>
<svg xmlns:dc="http://purl.org/dc/elements/1.1/" xmlns:cc="http://creativecommons.org/ns#" xmlns:rdf="http://www.w3.org/1999/02/22-rdf-syntax-ns#" xmlns:svg="http://www.w3.org/2000/svg" xmlns="http://www.w3.org/2000/svg" xmlns:sodipodi="http://sodipodi.sourceforge.net/DTD/sodipodi-0.dtd" xmlns:inkscape="http://www.inkscape.org/namespaces/inkscape" width="16" height="16" version="1.1" id="svg8" sodipodi:docname="hicolor_actions_scalable_text-regularexpression-symbolic.svg" inkscape:version="0.92.4 (5da689c313, 2019-01-14)">
  <metadata id="metadata14">
    <rdf:RDF>
      <cc:Work rdf:about="">
        <dc:format>image/svg+xml</dc:format>
        <dc:type rdf:resource="http://purl.org/dc/dcmitype/StillImage" />
        <dc:title />
      </cc:Work>
    </rdf:RDF>
  </metadata>
  <defs id="defs12" />
  <sodipodi:namedview pagecolor="#ffffff" bordercolor="#666666" borderopacity="1" objecttolerance="10" gridtolerance="10" guidetolerance="10" inkscape:pageopacity="0" inkscape:pageshadow="2" inkscape:window-width="1920" inkscape:window-height="1052" id="namedview10" showgrid="true" inkscape:zoom="29.5" inkscape:cx="1.1578155" inkscape:cy="5.7499108" inkscape:window-x="0" inkscape:window-y="0" inkscape:window-maximized="1" inkscape:current-layer="svg8">
    <inkscape:grid type="xygrid" id="grid827" />
  </sodipodi:namedview>
  <text xml:space="preserve" style="font-style:normal;font-weight:normal;font-size:12.5px;line-height:25px;font-family:sans-serif;text-align:center;letter-spacing:0px;word-spacing:0px;text-anchor:middle;fill:#000000;fill-opacity:1;stroke:none;stroke-width:1px;stroke-linecap:butt;stroke-linejoin:miter;stroke-opacity:1" x="9.2881355" y="25.355932" id="text825"><tspan sodipodi:role="line" id="tspan823" x="9.2881355" y="41.103004" style="font-style:normal;font-variant:normal;font-weight:normal;font-stretch:normal;font-family:'Bitstream Vera Sans';-inkscape-font-specification:'Bitstream Vera Sans'" /></text>
  <g aria-label=".*" style="font-style:normal;font-weight:normal;font-size:12.5px;line-height:25px;font-family:sans-serif;text-align:center;letter-spacing:0px;word-spacing:0px;text-anchor:middle;fill:#000000;fill-opacity:1;stroke:none;stroke-width:1px;stroke-linecap:butt;stroke-linejoin:miter;stroke-opacity:1" id="text821">
    <path style="font-style:normal;font-variant:normal;font-weight:normal;font-stretch:normal;font-size:14.66666698px;font-family:Aller;-inkscape-font-specification:Aller;fill:#bebebe;fill-opacity:1" d="m 10.097656,2.6132812 c -0.1466663,0 -0.2927862,0.015589 -0.4394529,0.044922 l -0.1171875,1.90625 c 0.088,0.019555 0.1756719,0.035144 0.2636719,0.044922 h 0.2929685 0.279297 c 0.09778,-0.00978 0.201039,-0.025366 0.308594,-0.044922 l -0.119141,-1.90625 c -0.166222,-0.029333 -0.322083,-0.044922 -0.46875,-0.044922 z M 7.3984375,4.2714844 C 7.2419931,4.5452621 7.1445799,4.8336076 7.1054688,5.1367188 l 1.7890624,0.703125 C 9.0607535,5.5073993 9.1737552,5.1469705 9.2324219,4.7558594 Z m 5.4121095,0 -1.832031,0.484375 c 0.05867,0.3911111 0.169714,0.75154 0.335937,1.0839844 l 1.791016,-0.703125 C 13.066357,4.8336076 12.966991,4.5452621 12.810547,4.2714844 Z M 9.0117188,6.1484375 7.9863281,7.7480469 C 8.0938837,7.8653803 8.2068854,7.9666875 8.3242188,8.0546875 8.4513299,8.1329097 8.5818611,8.2127934 8.71875,8.2910156 L 9.9375,6.8085938 C 9.7908333,6.6717048 9.6388663,6.5489618 9.4824219,6.4414062 9.3259775,6.3240729 9.1681632,6.2266598 9.0117188,6.1484375 Z m 2.1855472,0 c -0.156444,0.078222 -0.312306,0.1756354 -0.46875,0.2929687 -0.156445,0.1075556 -0.308412,0.2302986 -0.455078,0.3671876 l 1.21875,1.4824218 c 0.136888,-0.078222 0.263526,-0.1581059 0.380859,-0.2363281 0.127111,-0.088 0.244007,-0.1893072 0.351562,-0.3066406 z M 4.7851562,11.501953 c -0.1368889,0 -0.2732673,0.0058 -0.4101562,0.01563 -0.1271111,0.0098 -0.2595955,0.02342 -0.3964844,0.04297 -0.019556,0.136889 -0.039038,0.279114 -0.058594,0.425781 -0.00978,0.136889 -0.015625,0.273268 -0.015625,0.410156 0,0.13689 0.00585,0.273268 0.015625,0.410157 0.019556,0.127111 0.039038,0.259595 0.058594,0.396484 0.1368889,0.01955 0.2732673,0.03514 0.4101563,0.04492 0.1368888,0.0098 0.2752205,0.01367 0.4121093,0.01367 0.136889,0 0.2674202,-0.0039 0.3945313,-0.01367 0.1368889,-0.0098 0.2752205,-0.02537 0.4121094,-0.04492 0.019555,-0.136889 0.033191,-0.273267 0.042969,-0.410156 0.019555,-0.136889 0.029297,-0.273268 0.029297,-0.410157 0,-0.136889 -0.00974,-0.27522 -0.029297,-0.412109 -0.00978,-0.136889 -0.023413,-0.273267 -0.042969,-0.410156 -0.1368889,-0.01955 -0.2752205,-0.03319 -0.4121094,-0.04297 -0.1368889,-0.0098 -0.2732674,-0.01563 -0.4101563,-0.01563 z" id="path821" />
  </g>
</svg>
